<svg xmlns="http://www.w3.org/2000/svg" version="1.1" xmlns:xlink="http://www.w3.org/1999/xlink" xmlns:svgjs="http://svgjs.dev/svgjs" width="2000" height="444" viewBox="0 0 2000 444"><g transform="matrix(1,0,0,1,-1.2121212121212466,0.27168062518194347)"><svg viewBox="0 0 396 88" data-background-color="#ffffff" preserveAspectRatio="xMidYMid meet" height="444" width="2000" xmlns="http://www.w3.org/2000/svg" xmlns:xlink="http://www.w3.org/1999/xlink"><g id="tight-bounds" transform="matrix(1,0,0,1,0.2400000000000091,-0.05384661039641969)"><svg viewBox="0 0 395.52 88.10769322079287" height="88.10769322079287" width="395.52"><g><svg viewBox="0 0 548.7102689624231 122.2329997088388" height="88.10769322079287" width="395.52"><g><rect width="5.062124419292062" height="122.2329997088388" x="134.87650993765453" y="0" fill="#000000" opacity="1" stroke-width="0" stroke="transparent" fill-opacity="1" className="rect-qz-0" data-fill-palette-color="primary" rx="1%" id="qz-0" data-palette-color="#97978d"></rect></g><g transform="matrix(1,0,0,1,153.1902689624232,0.3040621883304411)"><svg viewBox="0 0 395.52 121.62487533217792" height="121.62487533217792" width="395.52"><g id="textblocktransform"><svg viewBox="0 0 395.52 121.62487533217792" height="121.62487533217792" width="395.52" id="textblock"><g><svg viewBox="0 0 395.52 121.62487533217792" height="121.62487533217792" width="395.52"><g transform="matrix(1,0,0,1,0,0)"><svg width="395.52" viewBox="3.0000000000000044 -35.010000000000005 254.57 74.49000000000001" height="121.62487533217792" data-palette-color="#97978d"><svg></svg><svg></svg><g className="wordmark-text-0" data-fill-palette-color="primary" id="text-0"><path d="M23.71-8.59v0c0 1.187-0.227 2.3-0.68 3.34-0.447 1.04-1.06 1.953-1.84 2.74-0.78 0.78-1.697 1.393-2.75 1.84-1.047 0.447-2.163 0.67-3.35 0.67v0h-11.09v-35.01h11.09c1.187 0 2.303 0.223 3.35 0.67 1.053 0.447 1.97 1.06 2.75 1.84 0.78 0.787 1.393 1.703 1.84 2.75 0.453 1.053 0.68 2.173 0.68 3.36v0zM20.56-8.59v-17.8c0-0.78-0.147-1.51-0.44-2.19-0.293-0.673-0.697-1.267-1.21-1.78-0.513-0.513-1.107-0.917-1.78-1.21-0.68-0.293-1.41-0.44-2.19-0.44v0h-7.79v29.01h7.79c0.78 0 1.51-0.147 2.19-0.44 0.673-0.293 1.267-0.693 1.78-1.2 0.513-0.507 0.917-1.097 1.21-1.77 0.293-0.673 0.44-1.4 0.44-2.18zM46.9-6.86v0c0 1.007-0.19 1.96-0.57 2.86-0.387 0.893-0.913 1.673-1.58 2.34-0.667 0.667-1.447 1.19-2.34 1.57-0.9 0.387-1.853 0.58-2.86 0.58v0h-2c-1.007 0-1.96-0.193-2.86-0.58-0.893-0.38-1.673-0.903-2.34-1.57-0.667-0.667-1.193-1.447-1.58-2.34-0.38-0.9-0.57-1.853-0.57-2.86v0-11.28c0-1.007 0.19-1.96 0.57-2.86 0.387-0.893 0.913-1.673 1.58-2.34 0.667-0.667 1.447-1.19 2.34-1.57 0.9-0.387 1.853-0.58 2.86-0.58v0h2c1.007 0 1.96 0.193 2.86 0.58 0.893 0.38 1.673 0.903 2.34 1.57 0.667 0.667 1.193 1.447 1.58 2.34 0.38 0.9 0.57 1.853 0.57 2.86v0 5.88h-13.7v5.57c0 0.6 0.113 1.167 0.34 1.7 0.233 0.527 0.543 0.987 0.93 1.38 0.393 0.387 0.853 0.693 1.38 0.92 0.533 0.233 1.1 0.35 1.7 0.35v0h2c0.6 0 1.167-0.117 1.7-0.35 0.527-0.227 0.987-0.533 1.38-0.92 0.387-0.393 0.693-0.853 0.92-1.38 0.233-0.533 0.35-1.1 0.35-1.7v0-1.66l3 0.49zM43.9-14.6v-3.71c0-0.6-0.117-1.167-0.35-1.7-0.227-0.527-0.533-0.987-0.92-1.38-0.393-0.387-0.853-0.693-1.38-0.92-0.533-0.233-1.1-0.35-1.7-0.35v0h-2c-0.6 0-1.167 0.117-1.7 0.35-0.527 0.227-0.987 0.533-1.38 0.92-0.387 0.393-0.697 0.853-0.93 1.38-0.227 0.533-0.34 1.1-0.34 1.7v0 3.71zM69.6-6.86v0c0 1.007-0.19 1.96-0.57 2.86-0.38 0.893-0.903 1.673-1.57 2.34-0.667 0.667-1.45 1.19-2.35 1.57-0.893 0.387-1.843 0.58-2.85 0.58v0h-2.01c-1.007 0-1.957-0.193-2.85-0.58-0.9-0.38-1.683-0.903-2.35-1.57-0.667-0.667-1.19-1.447-1.57-2.34-0.38-0.9-0.57-1.853-0.57-2.86v0-11.28c0-1.007 0.19-1.96 0.57-2.86 0.38-0.893 0.903-1.673 1.57-2.34 0.667-0.667 1.45-1.19 2.35-1.57 0.893-0.387 1.843-0.58 2.85-0.58v0h2.01c1.007 0 1.957 0.193 2.85 0.58 0.9 0.38 1.683 0.903 2.35 1.57 0.667 0.667 1.19 1.447 1.57 2.34 0.38 0.9 0.57 1.853 0.57 2.86v0 1l-3 0.49v-1.66c0-0.6-0.113-1.167-0.34-1.7-0.227-0.527-0.537-0.987-0.93-1.38-0.387-0.387-0.847-0.693-1.38-0.92-0.527-0.233-1.09-0.35-1.69-0.35v0h-2.01c-0.6 0-1.163 0.117-1.69 0.35-0.533 0.227-0.993 0.533-1.38 0.92-0.393 0.393-0.703 0.853-0.93 1.38-0.227 0.533-0.34 1.1-0.34 1.7v0 11.62c0 0.6 0.113 1.167 0.34 1.7 0.227 0.527 0.537 0.987 0.93 1.38 0.387 0.387 0.847 0.693 1.38 0.92 0.527 0.233 1.09 0.35 1.69 0.35v0h2.01c0.6 0 1.163-0.117 1.69-0.35 0.533-0.227 0.993-0.533 1.38-0.92 0.393-0.393 0.703-0.853 0.93-1.38 0.227-0.533 0.34-1.1 0.34-1.7v0-1.66l3 0.49zM92.31-6.86v0c0 1.007-0.19 1.96-0.57 2.86-0.387 0.893-0.913 1.673-1.58 2.34-0.667 0.667-1.447 1.19-2.34 1.57-0.9 0.387-1.853 0.58-2.86 0.58v0h-2c-1.007 0-1.96-0.193-2.86-0.58-0.893-0.38-1.673-0.903-2.34-1.57-0.667-0.667-1.193-1.447-1.58-2.34-0.38-0.9-0.57-1.853-0.57-2.86v0-11.28c0-1.007 0.19-1.96 0.57-2.86 0.387-0.893 0.913-1.673 1.58-2.34 0.667-0.667 1.447-1.19 2.34-1.57 0.9-0.387 1.853-0.58 2.86-0.58v0h2c1.007 0 1.96 0.193 2.86 0.58 0.893 0.38 1.673 0.903 2.34 1.57 0.667 0.667 1.193 1.447 1.58 2.34 0.38 0.9 0.57 1.853 0.57 2.86v0 5.88h-13.7v5.57c0 0.6 0.117 1.167 0.35 1.7 0.227 0.527 0.533 0.987 0.92 1.38 0.393 0.387 0.853 0.693 1.38 0.92 0.533 0.233 1.1 0.35 1.7 0.35v0h2c0.6 0 1.167-0.117 1.7-0.35 0.527-0.227 0.987-0.533 1.38-0.92 0.387-0.393 0.693-0.853 0.92-1.38 0.233-0.533 0.35-1.1 0.35-1.7v0-1.66l3 0.49zM89.31-14.6v-3.71c0-0.6-0.117-1.167-0.35-1.7-0.227-0.527-0.533-0.987-0.92-1.38-0.393-0.387-0.853-0.693-1.38-0.92-0.533-0.233-1.1-0.35-1.7-0.35v0h-2c-0.6 0-1.167 0.117-1.7 0.35-0.527 0.227-0.987 0.533-1.38 0.92-0.387 0.393-0.693 0.853-0.92 1.38-0.233 0.533-0.35 1.1-0.35 1.7v0 3.71zM115.01 0h-3v-18.31c0-0.6-0.113-1.167-0.34-1.7-0.227-0.527-0.537-0.987-0.93-1.38-0.387-0.387-0.847-0.693-1.38-0.92-0.527-0.233-1.09-0.35-1.69-0.35v0h-2.01c-0.6 0-1.163 0.117-1.69 0.35-0.533 0.227-0.993 0.533-1.38 0.92-0.393 0.393-0.703 0.853-0.93 1.38-0.227 0.533-0.34 1.1-0.34 1.7v0 18.31h-3v-25h1l1.63 2.54c0.687-0.927 1.547-1.663 2.58-2.21 1.033-0.547 2.16-0.82 3.38-0.82v0h0.76c1.007 0 1.957 0.193 2.85 0.58 0.9 0.38 1.683 0.903 2.35 1.57 0.667 0.667 1.19 1.447 1.57 2.34 0.38 0.9 0.57 1.853 0.57 2.86v0zM132.86 0h-2.73c-0.913 0-1.773-0.17-2.58-0.51-0.807-0.347-1.507-0.82-2.1-1.42-0.593-0.6-1.063-1.3-1.41-2.1-0.353-0.793-0.53-1.647-0.53-2.56v0-15.55h-4.49v-2.86h4.49v-6.01l3-0.48v6.49h6.35v2.86h-6.35v15.69c0 0.507 0.093 0.977 0.28 1.41 0.193 0.433 0.45 0.81 0.77 1.13 0.327 0.327 0.71 0.583 1.15 0.77 0.44 0.187 0.913 0.28 1.42 0.28v0h2.73zM148.73-22.14h-3c-0.607 0-1.173 0.113-1.7 0.34-0.527 0.227-0.987 0.537-1.38 0.93-0.387 0.387-0.697 0.847-0.93 1.38-0.227 0.527-0.34 1.09-0.34 1.69v0 17.8h-3v-25h1l1.64 2.54c0.68-0.927 1.537-1.663 2.57-2.21 1.033-0.547 2.16-0.82 3.38-0.82v0h1.76zM169.43 0h-1l-1.66-2.49c-0.68 0.893-1.533 1.613-2.56 2.16-1.027 0.547-2.15 0.82-3.37 0.82v0h-0.76c-1.007 0-1.957-0.193-2.85-0.58-0.9-0.38-1.683-0.903-2.35-1.57-0.667-0.667-1.19-1.447-1.57-2.34-0.387-0.9-0.58-1.853-0.58-2.86v0-0.24c0-1.013 0.193-1.967 0.58-2.86 0.38-0.893 0.903-1.673 1.57-2.34 0.667-0.673 1.45-1.2 2.35-1.58 0.893-0.38 1.843-0.57 2.85-0.57v0h6.35v-3.86c0-0.6-0.113-1.167-0.34-1.7-0.227-0.527-0.537-0.987-0.93-1.38-0.387-0.387-0.847-0.693-1.38-0.92-0.527-0.233-1.093-0.35-1.7-0.35v0h-1.75c-0.607 0-1.173 0.117-1.7 0.35-0.527 0.227-0.987 0.533-1.38 0.92-0.387 0.393-0.697 0.853-0.93 1.38-0.227 0.533-0.34 1.1-0.34 1.7v0 0.9l-3-0.49v-0.24c0-1.007 0.19-1.96 0.57-2.86 0.387-0.893 0.913-1.673 1.58-2.34 0.667-0.667 1.447-1.19 2.34-1.57 0.893-0.387 1.847-0.58 2.86-0.58v0h1.75c1.013 0 1.967 0.193 2.86 0.58 0.893 0.38 1.677 0.903 2.35 1.57 0.667 0.667 1.19 1.447 1.57 2.34 0.38 0.9 0.57 1.853 0.57 2.86v0zM166.43-6.69v-5.42h-6.35c-0.6 0-1.163 0.113-1.69 0.34-0.533 0.227-0.993 0.54-1.38 0.94-0.393 0.4-0.703 0.863-0.93 1.39-0.227 0.533-0.34 1.1-0.34 1.7v0 1.05c0 0.6 0.113 1.167 0.34 1.7 0.227 0.527 0.537 0.987 0.93 1.38 0.387 0.387 0.847 0.693 1.38 0.92 0.527 0.233 1.09 0.35 1.69 0.35v0h2c0.607 0 1.173-0.117 1.7-0.35 0.533-0.227 0.993-0.533 1.38-0.92 0.393-0.393 0.703-0.853 0.93-1.38 0.227-0.533 0.34-1.1 0.34-1.7zM179.44 0h-3v-35.01h3zM190.7-31.01h-3.49v-4h3.49zM190.45 0h-3v-25h3zM213.16 0h-16.7v-1.34l12.6-20.8h-12.11v-2.86h16.21v1.34l-12.6 20.8h12.6zM234.86-6.86v0c0 1.007-0.19 1.96-0.57 2.86-0.38 0.893-0.907 1.673-1.58 2.34-0.667 0.667-1.447 1.19-2.34 1.57-0.893 0.387-1.847 0.58-2.86 0.58v0h-2c-1.007 0-1.957-0.193-2.85-0.58-0.9-0.38-1.683-0.903-2.35-1.57-0.667-0.667-1.19-1.447-1.57-2.34-0.387-0.9-0.58-1.853-0.58-2.86v0-11.28c0-1.007 0.193-1.96 0.58-2.86 0.38-0.893 0.903-1.673 1.57-2.34 0.667-0.667 1.45-1.19 2.35-1.57 0.893-0.387 1.843-0.58 2.85-0.58v0h2c1.013 0 1.967 0.193 2.86 0.58 0.893 0.38 1.673 0.903 2.34 1.57 0.673 0.667 1.2 1.447 1.58 2.34 0.38 0.9 0.57 1.853 0.57 2.86v0 5.88h-13.69v5.57c0 0.6 0.113 1.167 0.34 1.7 0.227 0.527 0.537 0.987 0.93 1.38 0.387 0.387 0.847 0.693 1.38 0.92 0.527 0.233 1.09 0.35 1.69 0.35v0h2c0.607 0 1.173-0.117 1.7-0.35 0.527-0.227 0.987-0.533 1.38-0.92 0.393-0.393 0.703-0.853 0.93-1.38 0.227-0.533 0.34-1.1 0.34-1.7v0-1.66l3 0.49zM231.86-14.6v-3.71c0-0.6-0.113-1.167-0.34-1.7-0.227-0.527-0.537-0.987-0.93-1.38-0.393-0.387-0.853-0.693-1.38-0.92-0.527-0.233-1.093-0.35-1.7-0.35v0h-2c-0.6 0-1.163 0.117-1.69 0.35-0.533 0.227-0.993 0.533-1.38 0.92-0.393 0.393-0.703 0.853-0.93 1.38-0.227 0.533-0.34 1.1-0.34 1.7v0 3.71zM257.57 0h-1l-1.66-2.54c-0.687 0.927-1.543 1.663-2.57 2.21-1.02 0.547-2.143 0.82-3.37 0.82v0h-0.75c-1.013 0-1.967-0.193-2.86-0.58-0.893-0.38-1.673-0.903-2.34-1.57-0.667-0.667-1.193-1.447-1.58-2.34-0.38-0.9-0.57-1.853-0.57-2.86v0-11.28c0-1.007 0.19-1.96 0.57-2.86 0.387-0.893 0.913-1.673 1.58-2.34 0.667-0.667 1.447-1.19 2.34-1.57 0.893-0.387 1.847-0.58 2.86-0.58v0h0.75c1.127 0 2.17 0.23 3.13 0.69 0.96 0.453 1.783 1.087 2.47 1.9v0-12.11h3zM254.57-6.69v-11.62c0-0.6-0.117-1.167-0.35-1.7-0.227-0.527-0.533-0.987-0.92-1.38-0.393-0.387-0.853-0.693-1.38-0.92-0.533-0.233-1.1-0.35-1.7-0.35v0h-2c-0.607 0-1.173 0.117-1.7 0.35-0.527 0.227-0.987 0.533-1.38 0.92-0.387 0.393-0.697 0.853-0.93 1.38-0.227 0.533-0.34 1.1-0.34 1.7v0 11.62c0 0.6 0.113 1.167 0.34 1.7 0.233 0.527 0.543 0.987 0.93 1.38 0.393 0.387 0.853 0.693 1.38 0.92 0.527 0.233 1.093 0.35 1.7 0.35v0h2c0.6 0 1.167-0.117 1.7-0.35 0.527-0.227 0.987-0.533 1.38-0.92 0.387-0.393 0.693-0.853 0.92-1.38 0.233-0.533 0.35-1.1 0.35-1.7z" fill="#000000" fill-rule="nonzero" stroke="none" stroke-width="1" stroke-linecap="butt" stroke-linejoin="miter" stroke-miterlimit="10" stroke-dasharray="" stroke-dashoffset="0" font-family="none" font-weight="none" font-size="none" text-anchor="none" style="mix-blend-mode: normal" data-fill-palette-color="primary" opacity="1"></path><path transform="translate(0,38.99)" d="M23.19-9.16v1.05c0 1.193-0.24 2.31-0.72 3.35-0.48 1.04-1.123 1.95-1.93 2.73-0.8 0.787-1.733 1.403-2.8 1.85-1.067 0.447-2.193 0.67-3.38 0.67v0h-2.52c-1.187 0-2.313-0.223-3.38-0.67-1.067-0.447-2.003-1.063-2.81-1.85-0.807-0.78-1.45-1.69-1.93-2.73-0.48-1.04-0.72-2.157-0.72-3.35v0-1.39l3.15-0.51v1.9c0 0.787 0.16 1.517 0.48 2.19 0.313 0.673 0.74 1.267 1.28 1.78 0.54 0.513 1.163 0.917 1.87 1.21 0.707 0.293 1.45 0.44 2.23 0.44v0h2.2c0.78 0 1.52-0.147 2.22-0.44 0.7-0.293 1.32-0.697 1.86-1.21 0.533-0.513 0.96-1.107 1.28-1.78 0.313-0.673 0.47-1.403 0.47-2.19v0-1.05c0-1.2-0.233-2.2-0.7-3-0.473-0.793-1.1-1.473-1.88-2.04-0.787-0.56-1.67-1.037-2.65-1.43-0.987-0.387-2-0.777-3.04-1.17-1.04-0.387-2.053-0.817-3.04-1.29-0.987-0.473-1.87-1.063-2.65-1.77-0.78-0.707-1.407-1.573-1.88-2.6-0.473-1.027-0.71-2.29-0.71-3.79v0-0.65c0-1.193 0.223-2.31 0.67-3.35 0.447-1.04 1.063-1.95 1.85-2.73 0.78-0.787 1.693-1.403 2.74-1.85 1.053-0.447 2.173-0.67 3.36-0.67v0h2.25c1.187 0 2.3 0.223 3.34 0.67 1.04 0.447 1.95 1.063 2.73 1.85 0.787 0.78 1.403 1.69 1.85 2.73 0.447 1.04 0.67 2.157 0.67 3.35v0 0.9l-3.15 0.51v-1.41c0-0.787-0.147-1.517-0.44-2.19-0.293-0.673-0.693-1.263-1.2-1.77-0.5-0.507-1.09-0.907-1.77-1.2-0.673-0.293-1.4-0.44-2.18-0.44v0h-1.95c-0.787 0-1.517 0.147-2.19 0.44-0.673 0.293-1.267 0.693-1.78 1.2-0.513 0.507-0.917 1.097-1.21 1.77-0.293 0.673-0.44 1.403-0.44 2.19v0 0.65c0 1.127 0.237 2.073 0.71 2.84 0.473 0.76 1.1 1.413 1.88 1.96 0.78 0.547 1.663 1.02 2.65 1.42 0.98 0.4 1.993 0.807 3.04 1.22 1.04 0.413 2.053 0.87 3.04 1.37 0.98 0.493 1.863 1.103 2.65 1.83 0.78 0.72 1.407 1.603 1.88 2.65 0.467 1.04 0.7 2.307 0.7 3.8zM45.65-6.86v0c0 1.007-0.19 1.96-0.57 2.86-0.38 0.893-0.903 1.673-1.57 2.34-0.673 0.667-1.457 1.19-2.35 1.57-0.893 0.387-1.843 0.58-2.85 0.58v0h-2.01c-1.007 0-1.957-0.193-2.85-0.58-0.9-0.38-1.683-0.903-2.35-1.57-0.667-0.667-1.19-1.447-1.57-2.34-0.38-0.9-0.57-1.853-0.57-2.86v0-11.28c0-1.007 0.19-1.96 0.57-2.86 0.38-0.893 0.903-1.673 1.57-2.34 0.667-0.667 1.45-1.19 2.35-1.57 0.893-0.387 1.843-0.58 2.85-0.58v0h2.01c1.007 0 1.957 0.193 2.85 0.58 0.893 0.38 1.677 0.903 2.35 1.57 0.667 0.667 1.19 1.447 1.57 2.34 0.38 0.9 0.57 1.853 0.57 2.86v0zM42.65-6.69v-11.62c0-0.6-0.113-1.167-0.34-1.7-0.227-0.527-0.537-0.987-0.93-1.38-0.387-0.387-0.847-0.693-1.38-0.92-0.527-0.233-1.09-0.35-1.69-0.35v0h-2.01c-0.6 0-1.163 0.117-1.69 0.35-0.533 0.227-0.993 0.533-1.38 0.92-0.393 0.393-0.703 0.853-0.93 1.38-0.227 0.533-0.34 1.1-0.34 1.7v0 11.62c0 0.6 0.113 1.167 0.34 1.7 0.227 0.527 0.537 0.987 0.93 1.38 0.387 0.387 0.847 0.693 1.38 0.92 0.527 0.233 1.09 0.35 1.69 0.35v0h2.01c0.6 0 1.163-0.117 1.69-0.35 0.533-0.227 0.993-0.533 1.38-0.92 0.393-0.393 0.703-0.853 0.93-1.38 0.227-0.533 0.34-1.1 0.34-1.7zM68.36-6.86v0c0 1.007-0.19 1.96-0.57 2.86-0.387 0.893-0.913 1.673-1.58 2.34-0.667 0.667-1.447 1.19-2.34 1.57-0.9 0.387-1.853 0.58-2.86 0.58v0h-2c-1.007 0-1.96-0.193-2.86-0.58-0.893-0.38-1.673-0.903-2.34-1.57-0.667-0.667-1.193-1.447-1.58-2.34-0.38-0.9-0.57-1.853-0.57-2.86v0-11.28c0-1.007 0.19-1.96 0.57-2.86 0.387-0.893 0.913-1.673 1.58-2.34 0.667-0.667 1.447-1.19 2.34-1.57 0.9-0.387 1.853-0.58 2.86-0.58v0h2c1.007 0 1.96 0.193 2.86 0.58 0.893 0.38 1.673 0.903 2.34 1.57 0.667 0.667 1.193 1.447 1.58 2.34 0.38 0.9 0.57 1.853 0.57 2.86v0 1l-3 0.49v-1.66c0-0.6-0.117-1.167-0.35-1.7-0.227-0.527-0.533-0.987-0.92-1.38-0.393-0.387-0.853-0.693-1.38-0.92-0.533-0.233-1.1-0.35-1.7-0.35v0h-2c-0.6 0-1.167 0.117-1.7 0.35-0.527 0.227-0.987 0.533-1.38 0.92-0.387 0.393-0.697 0.853-0.93 1.38-0.227 0.533-0.34 1.1-0.34 1.7v0 11.62c0 0.6 0.113 1.167 0.34 1.7 0.233 0.527 0.543 0.987 0.93 1.38 0.393 0.387 0.853 0.693 1.38 0.92 0.533 0.233 1.1 0.35 1.7 0.35v0h2c0.6 0 1.167-0.117 1.7-0.35 0.527-0.227 0.987-0.533 1.38-0.92 0.387-0.393 0.693-0.853 0.92-1.38 0.233-0.533 0.35-1.1 0.35-1.7v0-1.66l3 0.49zM78.61-31.01h-3.49v-4h3.49zM78.37 0h-3v-25h3zM102.08 0h-1.01l-1.66-2.49c-0.68 0.893-1.533 1.613-2.56 2.16-1.027 0.547-2.15 0.82-3.37 0.82v0h-0.76c-1.007 0-1.957-0.193-2.85-0.58-0.893-0.38-1.677-0.903-2.35-1.57-0.667-0.667-1.19-1.447-1.57-2.34-0.38-0.9-0.57-1.853-0.57-2.86v0-0.24c0-1.013 0.19-1.967 0.57-2.86 0.38-0.893 0.903-1.673 1.57-2.34 0.673-0.673 1.457-1.2 2.35-1.58 0.893-0.38 1.843-0.57 2.85-0.57v0h6.35v-3.86c0-0.6-0.113-1.167-0.34-1.7-0.227-0.527-0.537-0.987-0.93-1.38-0.387-0.387-0.847-0.693-1.38-0.92-0.527-0.233-1.09-0.35-1.69-0.35v0h-1.76c-0.6 0-1.167 0.117-1.7 0.35-0.527 0.227-0.987 0.533-1.38 0.92-0.387 0.393-0.697 0.853-0.93 1.38-0.227 0.533-0.34 1.1-0.34 1.7v0 0.9l-3-0.49v-0.24c0-1.007 0.19-1.96 0.57-2.86 0.387-0.893 0.913-1.673 1.58-2.34 0.667-0.667 1.447-1.19 2.34-1.57 0.9-0.387 1.853-0.58 2.86-0.58v0h1.76c1.007 0 1.957 0.193 2.85 0.58 0.9 0.38 1.683 0.903 2.35 1.57 0.667 0.667 1.19 1.447 1.57 2.34 0.387 0.9 0.58 1.853 0.58 2.86v0zM99.07-6.69v-5.42h-6.35c-0.6 0-1.163 0.113-1.69 0.34-0.533 0.227-0.993 0.54-1.38 0.94-0.393 0.4-0.703 0.863-0.93 1.39-0.227 0.533-0.34 1.1-0.34 1.7v0 1.05c0 0.6 0.113 1.167 0.34 1.7 0.227 0.527 0.537 0.987 0.93 1.38 0.387 0.387 0.847 0.693 1.38 0.92 0.527 0.233 1.09 0.35 1.69 0.35v0h2.01c0.6 0 1.163-0.117 1.69-0.35 0.533-0.227 0.993-0.533 1.38-0.92 0.393-0.393 0.703-0.853 0.93-1.38 0.227-0.533 0.34-1.1 0.34-1.7zM112.08 0h-3v-35.01h3zM156.3 0h-3.15v-24l-0.22 1.49-8.13 22.51h-1.66l-8.2-22.51-0.2-1.49v24h-3.15v-35.01h1.64l10.62 28.71 0.1 1.3 0.09-1.3 10.6-28.71h1.66zM179.49-6.86v0c0 1.007-0.19 1.96-0.57 2.86-0.387 0.893-0.913 1.673-1.58 2.34-0.667 0.667-1.447 1.19-2.34 1.57-0.893 0.387-1.847 0.58-2.86 0.58v0h-2c-1.007 0-1.957-0.193-2.85-0.58-0.9-0.38-1.683-0.903-2.35-1.57-0.667-0.667-1.19-1.447-1.57-2.34-0.387-0.9-0.58-1.853-0.58-2.86v0-11.28c0-1.007 0.193-1.96 0.58-2.86 0.38-0.893 0.903-1.673 1.57-2.34 0.667-0.667 1.45-1.19 2.35-1.57 0.893-0.387 1.843-0.58 2.85-0.58v0h2c1.013 0 1.967 0.193 2.86 0.58 0.893 0.38 1.673 0.903 2.34 1.57 0.667 0.667 1.193 1.447 1.58 2.34 0.38 0.9 0.57 1.853 0.57 2.86v0 5.88h-13.69v5.57c0 0.6 0.113 1.167 0.34 1.7 0.227 0.527 0.537 0.987 0.93 1.38 0.387 0.387 0.843 0.693 1.37 0.92 0.533 0.233 1.1 0.35 1.7 0.35v0h2c0.607 0 1.173-0.117 1.7-0.35 0.527-0.227 0.987-0.533 1.38-0.92 0.393-0.393 0.703-0.853 0.93-1.38 0.227-0.533 0.34-1.1 0.34-1.7v0-1.66l3 0.49zM176.49-14.6v-3.71c0-0.6-0.113-1.167-0.34-1.7-0.227-0.527-0.537-0.987-0.93-1.38-0.393-0.387-0.853-0.693-1.38-0.92-0.527-0.233-1.093-0.35-1.7-0.35v0h-2c-0.6 0-1.167 0.117-1.7 0.35-0.527 0.227-0.983 0.533-1.37 0.92-0.393 0.393-0.703 0.853-0.93 1.38-0.227 0.533-0.34 1.1-0.34 1.7v0 3.71zM202.2 0h-1l-1.66-2.54c-0.687 0.927-1.543 1.663-2.57 2.21-1.027 0.547-2.15 0.82-3.37 0.82v0h-0.75c-1.013 0-1.967-0.193-2.86-0.58-0.893-0.38-1.673-0.903-2.34-1.57-0.667-0.667-1.193-1.447-1.58-2.34-0.38-0.9-0.57-1.853-0.57-2.86v0-11.28c0-1.007 0.19-1.96 0.57-2.86 0.387-0.893 0.913-1.673 1.58-2.34 0.667-0.667 1.447-1.19 2.34-1.57 0.893-0.387 1.847-0.58 2.86-0.58v0h0.75c1.127 0 2.17 0.23 3.13 0.69 0.96 0.453 1.78 1.087 2.46 1.9v0-12.11h3.01zM199.19-6.69v-11.62c0-0.6-0.113-1.167-0.34-1.7-0.227-0.527-0.537-0.987-0.93-1.38-0.387-0.387-0.843-0.693-1.37-0.92-0.533-0.233-1.1-0.35-1.7-0.35v0h-2c-0.607 0-1.173 0.117-1.7 0.35-0.527 0.227-0.987 0.533-1.38 0.92-0.393 0.393-0.703 0.853-0.93 1.38-0.227 0.533-0.34 1.1-0.34 1.7v0 11.62c0 0.6 0.113 1.167 0.34 1.7 0.227 0.527 0.537 0.987 0.93 1.38 0.393 0.387 0.853 0.693 1.38 0.92 0.527 0.233 1.093 0.35 1.7 0.35v0h2c0.6 0 1.167-0.117 1.7-0.35 0.527-0.227 0.983-0.533 1.37-0.92 0.393-0.393 0.703-0.853 0.93-1.38 0.227-0.533 0.34-1.1 0.34-1.7zM212.45-31.01h-3.49v-4h3.49zM212.21 0h-3.01v-25h3.01zM235.91 0h-1l-1.66-2.49c-0.68 0.893-1.533 1.613-2.56 2.16-1.027 0.547-2.15 0.82-3.37 0.82v0h-0.76c-1.007 0-1.957-0.193-2.85-0.58-0.9-0.38-1.683-0.903-2.35-1.57-0.667-0.667-1.19-1.447-1.57-2.34-0.387-0.9-0.58-1.853-0.58-2.86v0-0.24c0-1.013 0.193-1.967 0.58-2.86 0.38-0.893 0.903-1.673 1.57-2.34 0.667-0.673 1.45-1.2 2.35-1.58 0.893-0.38 1.843-0.57 2.85-0.57v0h6.35v-3.86c0-0.6-0.113-1.167-0.34-1.7-0.227-0.527-0.537-0.987-0.93-1.38-0.393-0.387-0.853-0.693-1.38-0.92-0.527-0.233-1.093-0.35-1.7-0.35v0h-1.75c-0.607 0-1.173 0.117-1.7 0.35-0.527 0.227-0.987 0.533-1.38 0.92-0.393 0.393-0.703 0.853-0.93 1.38-0.227 0.533-0.34 1.1-0.34 1.7v0 0.9l-3-0.49v-0.24c0-1.007 0.19-1.96 0.57-2.86 0.387-0.893 0.913-1.673 1.58-2.34 0.667-0.667 1.447-1.19 2.34-1.57 0.893-0.387 1.847-0.58 2.86-0.58v0h1.75c1.013 0 1.967 0.193 2.86 0.58 0.893 0.38 1.673 0.903 2.34 1.57 0.673 0.667 1.2 1.447 1.58 2.34 0.38 0.9 0.57 1.853 0.57 2.86v0zM232.91-6.69v-5.42h-6.35c-0.6 0-1.163 0.113-1.69 0.34-0.533 0.227-0.993 0.54-1.38 0.94-0.393 0.4-0.703 0.863-0.93 1.39-0.227 0.533-0.34 1.1-0.34 1.7v0 1.05c0 0.6 0.113 1.167 0.34 1.7 0.227 0.527 0.537 0.987 0.93 1.38 0.387 0.387 0.847 0.693 1.38 0.92 0.527 0.233 1.09 0.35 1.69 0.35v0h2c0.607 0 1.173-0.117 1.7-0.35 0.527-0.227 0.987-0.533 1.38-0.92 0.393-0.393 0.703-0.853 0.93-1.38 0.227-0.533 0.34-1.1 0.34-1.7z" fill="#000000" fill-rule="nonzero" stroke="none" stroke-width="1" stroke-linecap="butt" stroke-linejoin="miter" stroke-miterlimit="10" stroke-dasharray="" stroke-dashoffset="0" font-family="none" font-weight="none" font-size="none" text-anchor="none" style="mix-blend-mode: normal" data-fill-palette-color="primary" opacity="1"></path></g></svg></g></svg></g></svg></g></svg></g><g transform="matrix(1,0,0,1,0,0.3040621883304411)"><svg viewBox="0 0 121.62487533217792 121.62487533217792" height="121.62487533217792" width="121.62487533217792"><g><svg xmlns="http://www.w3.org/2000/svg" xmlns:xlink="http://www.w3.org/1999/xlink" version="1.1" x="0" y="0" viewBox="0 0 48 48" style="enable-background:new 0 0 48 48;" xml:space="preserve" height="121.62487533217792" width="121.62487533217792" className="icon-icon-0" data-fill-palette-color="accent" id="icon-0"><g fill="#97978d" data-fill-palette-color="accent"><path d="M8.001 23C5.243 23 3 20.757 3 18s2.243-5 5.001-5C10.758 13 13 15.243 13 18S10.758 23 8.001 23zM8.001 15C6.348 15 5 16.346 5 18s1.348 3 3.001 3S11 19.654 11 18 9.654 15 8.001 15z" fill="#000000" data-fill-palette-color="accent"></path><path d="M40.001 23C37.243 23 35 20.757 35 18s2.243-5 5.001-5C42.758 13 45 15.243 45 18S42.758 23 40.001 23zM40.001 15C38.348 15 37 16.346 37 18s1.348 3 3.001 3S43 19.654 43 18 41.654 15 40.001 15z" fill="#000000" data-fill-palette-color="accent"></path><path d="M24.001 10C21.243 10 19 7.757 19 5s2.243-5 5.001-5C26.758 0 29 2.243 29 5S26.758 10 24.001 10zM24.001 2C22.348 2 21 3.346 21 5s1.348 3 3.001 3S27 6.654 27 5 25.654 2 24.001 2z" fill="#000000" data-fill-palette-color="accent"></path><path d="M8 48c-2.206 0-4-1.794-4-4v-7.044C1.174 36.689 0 35.197 0 32v-4c0-1.542 1.458-3 3-3h10c1.542 0 3 1.458 3 3v4c0 3.197-1.174 4.689-4 4.956V44C12 46.206 10.206 48 8 48zM3 27c-0.448 0-1 0.551-1 1v4c0 2.439 0.561 3 3 3h1v9c0 1.104 0.896 2 2 2s2-0.896 2-2v-9h1c2.439 0 3-0.561 3-3v-4c0-0.449-0.552-1-1-1H3z" fill="#000000" data-fill-palette-color="accent"></path><path d="M24 35c-2.206 0-4-1.794-4-4v-7.044c-2.826-0.266-4-1.759-4-4.956v-4c0-1.542 1.458-3 3-3h10c1.542 0 3 1.458 3 3v4c0 3.197-1.174 4.69-4 4.956V31C28 33.206 26.206 35 24 35zM19 14c-0.448 0-1 0.551-1 1v4c0 2.439 0.561 3 3 3h1v9c0 1.104 0.896 2 2 2s2-0.896 2-2v-9h1c2.439 0 3-0.561 3-3v-4c0-0.449-0.552-1-1-1H19z" fill="#000000" data-fill-palette-color="accent"></path><path d="M40 48c-2.206 0-4-1.794-4-4v-7.044c-2.826-0.267-4-1.759-4-4.956v-4c0-1.542 1.458-3 3-3h10c1.542 0 3 1.458 3 3v4c0 3.197-1.174 4.689-4 4.956V44C44 46.206 42.206 48 40 48zM35 27c-0.448 0-1 0.551-1 1v4c0 2.439 0.561 3 3 3h1v9c0 1.104 0.896 2 2 2s2-0.896 2-2v-9h1c2.439 0 3-0.561 3-3v-4c0-0.449-0.552-1-1-1H35z" fill="#000000" data-fill-palette-color="accent"></path></g></svg></g></svg></g></svg></g><defs></defs></svg><rect width="395.52" height="88.10769322079287" fill="none" stroke="none" visibility="hidden"></rect></g></svg></g></svg>